<mxfile host="app.diagrams.net" modified="2024-04-01T22:15:21.294Z" agent="Mozilla/5.0 (Windows NT 10.0; Win64; x64) AppleWebKit/537.36 (KHTML, like Gecko) Chrome/123.0.0.0 Safari/537.36" etag="lafbkd5m2UqT_6KHjaAl" version="24.2.1" type="github">
  <diagram name="Page-1" id="G5Y20oBN5gqIfSyeBOBM">
    <mxGraphModel dx="819" dy="490" grid="1" gridSize="10" guides="1" tooltips="1" connect="1" arrows="1" fold="1" page="1" pageScale="1" pageWidth="850" pageHeight="1100" math="0" shadow="0">
      <root>
        <mxCell id="0" />
        <mxCell id="1" parent="0" />
        <mxCell id="EoByXdBGxIigCk8v95L0-10" value="" style="shape=step;perimeter=stepPerimeter;whiteSpace=wrap;html=1;fixedSize=1;size=30;" vertex="1" parent="1">
          <mxGeometry x="170" y="225" width="150" height="80" as="geometry" />
        </mxCell>
        <mxCell id="EoByXdBGxIigCk8v95L0-6" value="" style="rounded=1;whiteSpace=wrap;html=1;" vertex="1" parent="1">
          <mxGeometry x="10" y="5" width="320" height="200" as="geometry" />
        </mxCell>
        <mxCell id="EoByXdBGxIigCk8v95L0-1" value="Python scripts to run &amp;gt; TRAINING PIPELINES" style="text;html=1;align=center;verticalAlign=middle;resizable=0;points=[];autosize=1;strokeColor=none;fillColor=none;" vertex="1" parent="1">
          <mxGeometry x="40" y="10" width="270" height="30" as="geometry" />
        </mxCell>
        <mxCell id="EoByXdBGxIigCk8v95L0-2" value="FINE TUNE A TRAINED MODEL" style="text;html=1;align=center;verticalAlign=middle;resizable=0;points=[];autosize=1;strokeColor=none;fillColor=none;" vertex="1" parent="1">
          <mxGeometry x="40" y="50" width="200" height="30" as="geometry" />
        </mxCell>
        <mxCell id="EoByXdBGxIigCk8v95L0-3" value="work wih GPU on collab &amp;gt; to train models" style="text;html=1;align=center;verticalAlign=middle;resizable=0;points=[];autosize=1;strokeColor=none;fillColor=none;" vertex="1" parent="1">
          <mxGeometry x="40" y="90" width="240" height="30" as="geometry" />
        </mxCell>
        <mxCell id="EoByXdBGxIigCk8v95L0-4" value="Practice running MULTIPLE experiments" style="text;html=1;align=center;verticalAlign=middle;resizable=0;points=[];autosize=1;strokeColor=none;fillColor=none;" vertex="1" parent="1">
          <mxGeometry x="40" y="130" width="240" height="30" as="geometry" />
        </mxCell>
        <mxCell id="EoByXdBGxIigCk8v95L0-5" value="Evaluate IMAGE CLASSIFICATION MODELS" style="text;html=1;align=center;verticalAlign=middle;resizable=0;points=[];autosize=1;strokeColor=none;fillColor=none;" vertex="1" parent="1">
          <mxGeometry x="40" y="170" width="270" height="30" as="geometry" />
        </mxCell>
        <mxCell id="EoByXdBGxIigCk8v95L0-7" value="1.- CREATE A MODEL" style="text;html=1;align=center;verticalAlign=middle;resizable=0;points=[];autosize=1;strokeColor=none;fillColor=none;" vertex="1" parent="1">
          <mxGeometry x="40" y="250" width="140" height="30" as="geometry" />
        </mxCell>
        <mxCell id="EoByXdBGxIigCk8v95L0-8" value="Data collection" style="text;html=1;align=center;verticalAlign=middle;resizable=0;points=[];autosize=1;strokeColor=none;fillColor=none;" vertex="1" parent="1">
          <mxGeometry x="200" y="240" width="100" height="30" as="geometry" />
        </mxCell>
        <mxCell id="EoByXdBGxIigCk8v95L0-9" value="Data labeling" style="text;html=1;align=center;verticalAlign=middle;resizable=0;points=[];autosize=1;strokeColor=none;fillColor=none;" vertex="1" parent="1">
          <mxGeometry x="200" y="260" width="90" height="30" as="geometry" />
        </mxCell>
        <mxCell id="EoByXdBGxIigCk8v95L0-15" style="edgeStyle=orthogonalEdgeStyle;rounded=0;orthogonalLoop=1;jettySize=auto;html=1;" edge="1" parent="1" source="EoByXdBGxIigCk8v95L0-11" target="EoByXdBGxIigCk8v95L0-13">
          <mxGeometry relative="1" as="geometry" />
        </mxCell>
        <mxCell id="EoByXdBGxIigCk8v95L0-11" value="MULTICLASS classification TASK" style="text;html=1;align=center;verticalAlign=middle;resizable=0;points=[];autosize=1;strokeColor=none;fillColor=none;" vertex="1" parent="1">
          <mxGeometry x="345" y="246" width="200" height="30" as="geometry" />
        </mxCell>
        <mxCell id="EoByXdBGxIigCk8v95L0-12" value="DATA DRIVEN&lt;br&gt;&lt;div style=&quot;&quot;&gt;&lt;span style=&quot;background-color: initial;&quot;&gt;Labeled dataset&amp;nbsp;&lt;/span&gt;&lt;/div&gt;" style="text;html=1;align=left;verticalAlign=middle;resizable=0;points=[];autosize=1;strokeColor=none;fillColor=none;" vertex="1" parent="1">
          <mxGeometry x="635" y="215" width="110" height="40" as="geometry" />
        </mxCell>
        <mxCell id="EoByXdBGxIigCk8v95L0-13" value="NON PARAMETRIC APPROACH&lt;div&gt;Nearest Neighbor&lt;/div&gt;" style="text;html=1;align=left;verticalAlign=middle;resizable=0;points=[];autosize=1;strokeColor=none;fillColor=none;" vertex="1" parent="1">
          <mxGeometry x="640" y="265" width="200" height="40" as="geometry" />
        </mxCell>
        <mxCell id="EoByXdBGxIigCk8v95L0-14" style="edgeStyle=orthogonalEdgeStyle;rounded=0;orthogonalLoop=1;jettySize=auto;html=1;entryX=0.004;entryY=0.448;entryDx=0;entryDy=0;entryPerimeter=0;" edge="1" parent="1" source="EoByXdBGxIigCk8v95L0-11" target="EoByXdBGxIigCk8v95L0-12">
          <mxGeometry relative="1" as="geometry" />
        </mxCell>
      </root>
    </mxGraphModel>
  </diagram>
</mxfile>
